<svg width="55" height="53" viewBox="0 0 55 53" fill="none" xmlns="http://www.w3.org/2000/svg">
<path d="M39.1595 43.2746L45.421 40.1052" stroke="#FACD7F" stroke-width="2"/>
<path d="M45.421 40.1052C46.3315 41.8874 46.8833 43.7599 47.0766 45.7225C47.1024 45.9716 47.2033 46.0059 47.3794 45.8256C59.8187 32.8451 54.0403 12.7915 35.8097 9.98926" stroke="#FBE17D" stroke-width="2"/>
<path d="M35.8097 9.98928C31.7985 8.88127 27.7187 8.53556 23.5701 8.95213C22.5136 9.0595 21.5452 8.96931 20.6648 8.68157C15.0281 6.81986 10.274 4.86152 6.14472 1.11878C5.93858 0.929813 5.78827 0.966319 5.69379 1.22829C3.8192 6.42691 4.97874 10.743 7.80029 15.2716C8.0322 15.641 7.95275 15.7312 7.56194 15.5422C5.67661 14.6403 3.91582 13.5323 2.27958 12.2182C2.22986 12.1787 2.17131 12.1518 2.10894 12.1399C2.04657 12.1279 1.98224 12.1313 1.92145 12.1496C1.86066 12.168 1.80522 12.2008 1.75989 12.2453C1.71456 12.2898 1.68068 12.3446 1.66116 12.405C-0.496882 19.0079 2.96242 24.3805 7.20764 29.038C7.42076 29.2721 7.55189 29.5683 7.58127 29.8819C8.73437 42.1151 18.8353 50.831 30.9203 51.2304C31.1522 51.2389 31.2853 51.1294 31.3197 50.9018C31.5301 49.4245 32.2215 48.3616 33.394 47.7131C35.7818 46.3946 37.7036 44.9151 39.1595 43.2746" stroke="#9CA0ED" stroke-width="2"/>
<path d="M35.8097 9.98926L34.7919 12.7271" stroke="#9F8972" stroke-width="2"/>
<path d="M34.7919 12.7271C9.64267 5.19648 8.58619 39.7959 32.6532 37.8247C33.2973 37.7667 33.6903 38.0566 33.8256 38.6557" stroke="#9CA0ED" stroke-width="2"/>
<path d="M33.8256 38.6558C34.4612 41.5933 36.2391 43.1329 39.1595 43.2746" stroke="#9E7574" stroke-width="2"/>
<path d="M32.5887 33.3411C32.6016 34.943 32.9881 36.4375 33.7483 37.8246C33.9093 38.121 33.8707 38.3464 33.8256 38.6556" stroke="#FACD7F" stroke-width="2"/>
<path d="M45.421 40.1051C41.8071 35.512 37.8582 34.8291 32.5887 33.3411" stroke="#FDB604" stroke-width="2"/>
<path d="M32.5887 33.3411C31.9639 25.6817 32.2731 19.8518 34.7919 12.7271" stroke="#FBE17D" stroke-width="2"/>
<path d="M28.7043 19.7165C28.7043 18.6914 28.2971 17.7082 27.5722 16.9834C26.8474 16.2585 25.8642 15.8513 24.8391 15.8513C23.814 15.8513 22.8309 16.2585 22.1061 16.9834C21.3812 17.7082 20.974 18.6914 20.974 19.7165C20.974 20.7416 21.3812 21.7247 22.1061 22.4495C22.8309 23.1744 23.814 23.5816 24.8391 23.5816C25.8642 23.5816 26.8474 23.1744 27.5722 22.4495C28.2971 21.7247 28.7043 20.7416 28.7043 19.7165Z" stroke="#878787" stroke-width="2"/>
<path d="M26.8168 18.3123C26.8168 17.9655 26.679 17.6329 26.4337 17.3877C26.1885 17.1424 25.8559 17.0046 25.5091 17.0046C25.1622 17.0046 24.8296 17.1424 24.5844 17.3877C24.3391 17.6329 24.2014 17.9655 24.2014 18.3123C24.2014 18.6592 24.3391 18.9918 24.5844 19.237C24.8296 19.4823 25.1622 19.6201 25.5091 19.6201C25.8559 19.6201 26.1885 19.4823 26.4337 19.237C26.679 18.9918 26.8168 18.6592 26.8168 18.3123Z" stroke="#878787" stroke-width="2"/>
<path d="M35.8097 9.98928L34.7919 12.7271C9.64268 5.1965 8.5862 39.796 32.6532 37.8247C33.2974 37.7668 33.6903 38.0567 33.8256 38.6558C34.4612 41.5933 36.2392 43.1329 39.1595 43.2746C37.7036 44.9151 35.7818 46.3946 33.394 47.7131C32.2215 48.3616 31.5301 49.4245 31.3197 50.9018C31.2853 51.1294 31.1522 51.2389 30.9203 51.2304C18.8353 50.831 8.73437 42.1151 7.58127 29.8819C7.55189 29.5683 7.42076 29.2721 7.20764 29.038C2.96242 24.3805 -0.496882 19.0079 1.66116 12.405C1.68068 12.3446 1.71456 12.2898 1.75989 12.2453C1.80522 12.2008 1.86066 12.168 1.92145 12.1496C1.98224 12.1313 2.04657 12.1279 2.10894 12.1399C2.17131 12.1518 2.22986 12.1787 2.27958 12.2182C3.91582 13.5323 5.67661 14.6403 7.56194 15.5422C7.95275 15.7312 8.0322 15.641 7.80029 15.2716C4.97874 10.743 3.8192 6.42691 5.69379 1.22829C5.78827 0.966319 5.93858 0.929813 6.14472 1.11878C10.274 4.86152 15.0281 6.81986 20.6648 8.68157C21.5452 8.96931 22.5136 9.0595 23.5701 8.95213C27.7187 8.53556 31.7985 8.88127 35.8097 9.98928Z" fill="#4047E2"/>
<path d="M35.8097 9.98926C54.0403 12.7915 59.8187 32.8451 47.3793 45.8256C47.2033 46.0059 47.1023 45.9716 47.0766 45.7225C46.8833 43.7599 46.3315 41.8874 45.421 40.1052C41.8071 35.5121 37.8582 34.8292 32.5887 33.3412C31.9639 25.6817 32.2731 19.8518 34.7919 12.7271L35.8097 9.98926Z" fill="#FECA01"/>
<path d="M34.7919 12.7271C32.2731 19.8518 31.9639 25.6817 32.5887 33.3412C32.6016 34.943 32.9881 36.4376 33.7483 37.8247C33.9093 38.1211 33.8707 38.3465 33.8256 38.6557C33.6903 38.0566 33.2973 37.7667 32.6532 37.8247C8.58619 39.7959 9.64267 5.19648 34.7919 12.7271ZM28.7043 19.7165C28.7043 18.6914 28.297 17.7083 27.5722 16.9835C26.8473 16.2586 25.8642 15.8514 24.8391 15.8514C23.814 15.8514 22.8309 16.2586 22.1061 16.9835C21.3812 17.7083 20.974 18.6914 20.974 19.7165C20.974 20.7416 21.3812 21.7247 22.1061 22.4496C22.8309 23.1745 23.814 23.5817 24.8391 23.5817C25.8642 23.5817 26.8473 23.1745 27.5722 22.4496C28.297 21.7247 28.7043 20.7416 28.7043 19.7165Z" fill="#F8F8F8"/>
<path d="M28.7043 19.7165C28.7043 20.7416 28.2971 21.7247 27.5722 22.4495C26.8474 23.1744 25.8642 23.5816 24.8391 23.5816C23.814 23.5816 22.8309 23.1744 22.1061 22.4495C21.3812 21.7247 20.974 20.7416 20.974 19.7165C20.974 18.6914 21.3812 17.7082 22.1061 16.9834C22.8309 16.2585 23.814 15.8513 24.8391 15.8513C25.8642 15.8513 26.8474 16.2585 27.5722 16.9834C28.2971 17.7082 28.7043 18.6914 28.7043 19.7165ZM26.8168 18.3121C26.8168 17.9653 26.679 17.6327 26.4338 17.3874C26.1885 17.1422 25.8559 17.0044 25.5091 17.0044C25.1623 17.0044 24.8297 17.1422 24.5844 17.3874C24.3392 17.6327 24.2014 17.9653 24.2014 18.3121C24.2014 18.659 24.3392 18.9916 24.5844 19.2368C24.8297 19.4821 25.1623 19.6198 25.5091 19.6198C25.8559 19.6198 26.1885 19.4821 26.4338 19.2368C26.679 18.9916 26.8168 18.659 26.8168 18.3121Z" fill="#322C49"/>
<path d="M25.5091 19.6201C26.2313 19.6201 26.8168 19.0346 26.8168 18.3123C26.8168 17.5901 26.2313 17.0046 25.5091 17.0046C24.7868 17.0046 24.2014 17.5901 24.2014 18.3123C24.2014 19.0346 24.7868 19.6201 25.5091 19.6201Z" fill="#F8F8F8"/>
<path d="M32.5887 33.3413C37.8582 34.8294 41.8071 35.5122 45.421 40.1053L39.1595 43.2747C36.2392 43.133 34.4612 41.5934 33.8256 38.6559C33.8707 38.3467 33.9093 38.1212 33.7483 37.8249C32.9881 36.4377 32.6016 34.9432 32.5887 33.3413Z" fill="#FCA206"/>
</svg>
