<svg width="20" height="13" viewBox="0 0 20 13" fill="none" xmlns="http://www.w3.org/2000/svg">
<path d="M1.94369 12.1905H18.7888C19.3678 12.1905 19.8416 11.7375 19.8416 11.1837C19.8416 10.63 19.3678 10.1769 18.7888 10.1769H1.94369C1.36464 10.1769 0.890869 10.63 0.890869 11.1837C0.890869 11.7375 1.36464 12.1905 1.94369 12.1905ZM1.94369 7.15651H18.7888C19.3678 7.15651 19.8416 6.70344 19.8416 6.1497C19.8416 5.59596 19.3678 5.1429 18.7888 5.1429H1.94369C1.36464 5.1429 0.890869 5.59596 0.890869 6.1497C0.890869 6.70344 1.36464 7.15651 1.94369 7.15651ZM0.890869 1.11569C0.890869 1.66943 1.36464 2.12249 1.94369 2.12249H18.7888C19.3678 2.12249 19.8416 1.66943 19.8416 1.11569C19.8416 0.561948 19.3678 0.108887 18.7888 0.108887H1.94369C1.36464 0.108887 0.890869 0.561948 0.890869 1.11569Z" fill="#4047E2"/>
</svg>
