<svg width="89" height="89" viewBox="0 0 89 89" fill="none" xmlns="http://www.w3.org/2000/svg">
<circle cx="44.5" cy="44.5" r="44.5" fill="#FCA206"/>
<path d="M25 40.3333C25 35.8936 25 31.0414 25 28.9965C25 28.4442 25.4442 28 25.9965 28C28.0414 28 32.8936 28 37.3333 28H53.7778C58.2175 28 63.0697 28 65.1146 28C65.6669 28 66.1111 28.4442 66.1111 28.9965C66.1111 31.0414 66.1111 35.8936 66.1111 40.3333V42.3889C66.1111 46.8286 66.1111 51.6808 66.1111 53.7257C66.1111 54.278 65.6669 54.7222 65.1146 54.7222C63.0697 54.7222 58.2175 54.7222 53.7778 54.7222H37.3333C32.8936 54.7222 28.0414 54.7222 25.9965 54.7222C25.4442 54.7222 25 54.278 25 53.7257C25 51.6808 25 46.8286 25 42.3889V40.3333Z" stroke="#F8F8F8" stroke-width="5.5" stroke-miterlimit="16"/>
<path d="M45.5555 60.8889V55.75V60.8889ZM45.5555 60.8889L57.8888 65L45.5555 60.8889ZM45.5555 60.8889L33.2222 65L45.5555 60.8889Z" fill="#F8F8F8"/>
<path d="M45.5555 60.8889V55.75M45.5555 60.8889L57.8888 65M45.5555 60.8889L33.2222 65" stroke="#F8F8F8" stroke-width="5.5" stroke-linecap="round"/>
</svg>
