<svg width="89" height="89" viewBox="0 0 89 89" fill="none" xmlns="http://www.w3.org/2000/svg">
<circle cx="44.5" cy="44.5" r="44.5" fill="#4047E2"/>
<rect width="49" height="39" transform="translate(20 26)" fill="#4047E2"/>
<path d="M56.0122 42.449C55.6219 42.8405 54.988 42.841 54.5971 42.4503L47.4173 35.2742C47.0265 34.8836 47.0265 34.2502 47.4173 33.8596L49.4264 31.8515C49.8169 31.4613 50.4497 31.4613 50.8402 31.8515L54.5741 35.5834C54.9645 35.9737 55.5974 35.9737 55.9879 35.5834L64.8694 26.7066C65.2599 26.3163 65.8928 26.3163 66.2832 26.7066L68.2936 28.7159C68.6839 29.1059 68.6844 29.7384 68.2948 30.1292L56.0122 42.449ZM41.8533 34.4505C41.8533 33.8982 41.4056 33.4505 40.8533 33.4505H21C20.4477 33.4505 20 33.8982 20 34.4505V37.3043C20 37.8566 20.4477 38.3043 21 38.3043H40.8533C41.4056 38.3043 41.8533 37.8566 41.8533 37.3043V34.4505ZM65.4271 49.7141C65.8179 49.3236 65.8179 48.6901 65.4271 48.2996L63.418 46.2915C63.0275 45.9012 62.3947 45.9012 62.0042 46.2915L57.1291 51.164C56.7386 51.5543 56.1058 51.5543 55.7153 51.164L50.8402 46.2915C50.4497 45.9012 49.8169 45.9012 49.4264 46.2915L47.4173 48.2996C47.0265 48.6901 47.0265 49.3236 47.4173 49.7141L52.2909 54.5852C52.6816 54.9757 52.6816 55.6092 52.2909 55.9998L47.4173 60.8708C47.0265 61.2614 47.0265 61.8948 47.4173 62.2854L49.4264 64.2934C49.8169 64.6837 50.4497 64.6837 50.8402 64.2934L55.7153 59.4209C56.1058 59.0307 56.7386 59.0307 57.1291 59.4209L62.0042 64.2934C62.3947 64.6837 63.0275 64.6837 63.418 64.2934L65.4271 62.2854C65.8179 61.8948 65.8179 61.2614 65.4271 60.8708L60.5535 55.9998C60.1628 55.6092 60.1628 54.9757 60.5535 54.5852L65.4271 49.7141ZM41.8533 53.8656C41.8533 53.3133 41.4056 52.8656 40.8533 52.8656H21C20.4477 52.8656 20 53.3133 20 53.8656V56.7194C20 57.2716 20.4477 57.7194 21 57.7194H40.8533C41.4056 57.7194 41.8533 57.2716 41.8533 56.7194V53.8656Z" fill="#F8F8F8"/>
</svg>
