<svg width="89" height="89" viewBox="0 0 89 89" fill="none" xmlns="http://www.w3.org/2000/svg">
<circle cx="44.5" cy="44.5" r="44.5" fill="#FCA206"/>
<rect width="53" height="45" transform="translate(16 22)" fill="#FCA206"/>
<path d="M46.2857 22C40.2615 22 34.484 24.3705 30.2243 28.5901C26.203 32.5734 23.8453 37.8965 23.5938 43.5002C23.5691 44.0519 23.1237 44.5 22.5714 44.5H18.4305C17.5373 44.5 17.0922 45.5819 17.7267 46.2104L25.7881 54.1958C25.8077 54.2151 25.8239 54.2375 25.8363 54.2621C25.9144 54.4167 26.1204 54.4503 26.2436 54.3286L34.4586 46.2113C35.0943 45.5831 34.6495 44.5 33.7557 44.5H29.619C29.0668 44.5 28.6161 44.0514 28.6473 43.5C29.1694 34.2915 36.8574 27 46.2857 27C56.0529 27 63.9524 34.825 63.9524 44.5C63.9524 54.175 56.0529 62 46.2857 62C41.7739 62 37.6518 60.3055 34.5413 57.5324C34.1307 57.1663 33.5024 57.1627 33.1116 57.5499L30.9495 59.6915C30.5553 60.082 30.553 60.7206 30.9632 61.0943C32.9069 62.8643 35.1506 64.285 37.5939 65.2896C40.3488 66.4224 43.3029 67.0037 46.2857 67C52.3099 67 58.0874 64.6295 62.3471 60.4099C66.6069 56.1903 69 50.4674 69 44.5C69 38.5326 66.6069 32.8097 62.3471 28.5901C58.0874 24.3705 52.3099 22 46.2857 22ZM44.7619 34.5C44.2096 34.5 43.7619 34.9477 43.7619 35.5V46.4279C43.7619 46.7823 43.9496 47.1103 44.2551 47.2899L53.7099 52.848C54.1828 53.126 54.7914 52.9711 55.0739 52.5009L55.8614 51.1899C56.1476 50.7135 55.9904 50.0951 55.5115 49.8132L48.0403 45.415C47.735 45.2353 47.5476 44.9075 47.5476 44.5533V35.5C47.5476 34.9477 47.0999 34.5 46.5476 34.5H44.7619Z" fill="#F8F8F8"/>
</svg>
